<svg xmlns="http://www.w3.org/2000/svg" viewBox="0 0 640 400" role="img" aria-label="COLUMN ↔ ROW illustration">
<defs>
<linearGradient id="gradation" x1="0" y1="0" x2="1" y2="1"><stop offset="0" stop-color="#f8d55a"/><stop offset=".45" stop-color="#ff7b73"/><stop offset="1" stop-color="#76aef9"/></linearGradient>
</defs>
<rect x="3" y="3" width="634" height="394" rx="26" fill="#fffdf8" stroke="#171717" stroke-width="5" />
<rect x="22" y="20" width="596" height="360" rx="17" fill="#f5f2e9" stroke="#e0ddd5" stroke-width="1.5" />
<rect x="38" y="35" width="105" height="32" rx="13" fill="#f8d55a" stroke="#171717" stroke-width="3" /><text x="90.5" y="56" font-size="13" font-family="Arial,Helvetica,sans-serif" font-weight="800" fill="#171717" text-anchor="middle" >BEFORE</text><rect x="375" y="35" width="105" height="32" rx="13" fill="#76aef9" stroke="#171717" stroke-width="3" /><text x="427.5" y="56" font-size="13" font-family="Arial,Helvetica,sans-serif" font-weight="800" fill="#171717" text-anchor="middle" >AFTER</text>
<path d="M301 174 H334 L322 162 M334 174 L322 186" stroke="#171717" stroke-width="6" stroke-linecap="round" stroke-linejoin="round" fill="none"/>
<rect x="54" y="95" width="192" height="53" rx="12" fill="#fff" stroke="#171717" stroke-width="3" /><rect x="67" y="107" width="30" height="29" rx="7" fill="#f8d55a" stroke="#171717" stroke-width="3" /><line x1="112" y1="115" x2="220" y2="115" stroke="#171717" stroke-width="5" stroke-linecap="round"/><line x1="112" y1="129" x2="177" y2="129" stroke="#98938b" stroke-width="4" stroke-linecap="round"/><rect x="370" y="95" width="216" height="53" rx="12" fill="#fff" stroke="#171717" stroke-width="3" /><rect x="383" y="107" width="30" height="29" rx="7" fill="#f8d55a" stroke="#171717" stroke-width="3" /><line x1="428" y1="115" x2="559" y2="115" stroke="#171717" stroke-width="5" stroke-linecap="round"/><line x1="428" y1="129" x2="513" y2="129" stroke="#98938b" stroke-width="4" stroke-linecap="round"/><rect x="54" y="161" width="192" height="53" rx="12" fill="#fff" stroke="#171717" stroke-width="3" /><rect x="67" y="173" width="30" height="29" rx="7" fill="#ff7b73" stroke="#171717" stroke-width="3" /><line x1="112" y1="181" x2="220" y2="181" stroke="#171717" stroke-width="5" stroke-linecap="round"/><line x1="112" y1="195" x2="177" y2="195" stroke="#98938b" stroke-width="4" stroke-linecap="round"/><rect x="370" y="161" width="216" height="53" rx="12" fill="#fff" stroke="#171717" stroke-width="3" /><rect x="383" y="173" width="30" height="29" rx="7" fill="#ff7b73" stroke="#171717" stroke-width="3" /><line x1="428" y1="181" x2="559" y2="181" stroke="#171717" stroke-width="5" stroke-linecap="round"/><line x1="428" y1="195" x2="513" y2="195" stroke="#98938b" stroke-width="4" stroke-linecap="round"/><rect x="54" y="227" width="192" height="53" rx="12" fill="#fff" stroke="#171717" stroke-width="3" /><rect x="67" y="239" width="30" height="29" rx="7" fill="#76aef9" stroke="#171717" stroke-width="3" /><line x1="112" y1="247" x2="220" y2="247" stroke="#171717" stroke-width="5" stroke-linecap="round"/><line x1="112" y1="261" x2="177" y2="261" stroke="#98938b" stroke-width="4" stroke-linecap="round"/><rect x="370" y="227" width="216" height="53" rx="12" fill="#fff" stroke="#171717" stroke-width="3" /><rect x="383" y="239" width="30" height="29" rx="7" fill="#76aef9" stroke="#171717" stroke-width="3" /><line x1="428" y1="247" x2="559" y2="247" stroke="#171717" stroke-width="5" stroke-linecap="round"/><line x1="428" y1="261" x2="513" y2="261" stroke="#98938b" stroke-width="4" stroke-linecap="round"/>
<text x="320" y="362" font-size="16" font-family="Arial,Helvetica,sans-serif" font-weight="900" fill="#171717" text-anchor="middle" letter-spacing="2">COLUMN ↔ ROW</text>
</svg>